<?xml version="1.0" encoding="UTF-8" standalone="no"?>
<!DOCTYPE svg PUBLIC "-//W3C//DTD SVG 1.1//EN" "http://www.w3.org/Graphics/SVG/1.1/DTD/svg11.dtd">
<svg t="1542627067771" class="icon" style="" viewBox="0 0 1450 1024" version="1.1" xmlns="http://www.w3.org/2000/svg" p-id="8459" xmlns:xlink="http://www.w3.org/1999/xlink" width="283.203125" height="200"><defs><style type="text/css"/></defs><path d="M659.296288 3.81216c-57.335973 7.422961-140.780291 37.797375-180.284094 65.697469a95.048027 95.048027 0 0 1-13.907386 8.190853 332.753415 332.753415 0 0 0-29.947807 21.756954c-52.643297 41.892802-96.754454 97.607668-121.753622 153.066571-13.395458 29.691843-17.746849 41.80748-30.289092 86.174602-4.010105 15.272529-9.897281 22.183561-18.600063 22.183561-15.101886 0-93.256277 31.568914-117.402231 47.35337-18.002813 12.115637-61.602042 49.059798-69.45161 59.298365-40.954266 52.899261-48.633191 66.124076-61.687363 104.945308A290.945934 290.945934 0 0 0 0.01792 670.769452c0 87.88103 31.995521 161.513388 97.351704 223.542038 40.442338 38.394625 87.88103 65.953433 136.599543 78.836963 57.591937 15.187207 40.698302 14.931243 489.744769 14.931243 377.632465 0 416.624339-0.59725 441.964791-4.692677 30.7157-5.204605 76.703928-16.808314 82.164497-20.647776a75.936036 75.936036 0 0 1 13.651423-6.399104c13.395458-4.948641 44.196479-23.889989 67.233254-41.295552A315.006566 315.006566 0 0 0 1450.481522 670.428167c0-27.04688-11.347745-89.075529-18.856027-102.812273a38.053339 38.053339 0 0 1-4.436712-11.603709c0-4.948641-22.354204-46.329514-28.412023-53.240546a196.239193 196.239193 0 0 1-13.395458-17.320242c-11.347745-17.064278-25.852381-31.739556-54.09376-54.09376-28.156058-22.866132-46.500157-34.725805-61.004792-40.186374a65.953433 65.953433 0 0 1-13.395458-6.057819 704.839989 704.839989 0 0 0-70.902074-24.57256 505.699869 505.699869 0 0 0-53.752475-4.436712c-48.889156-1.621106-84.297532 1.706428-109.040734 10.494531a2086.107945 2086.107945 0 0 1-29.606522 9.982602c-17.746849 5.460569-53.752475 24.231274-70.987395 36.688197a1976.299318 1976.299318 0 0 0-153.749142 130.88301A36062.791209 36062.791209 0 0 1 495.905829 793.632251c-15.9551 14.333993-39.845088 36.688197-53.155225 49.315763l-24.145953 22.951453-48.633191-1.962392c-26.961559-0.853214-60.066257-3.583498-74.058965-5.54589a195.812586 195.812586 0 0 1-158.441818-137.794042c-6.057819-20.989062-6.655068-74.229608-1.109178-95.133348 9.555995-35.834983 37.200125-77.215856 67.745182-101.447131 32.251485-25.596417 88.648922-44.623086 132.248152-44.623086 52.302011 0 110.405877 25.596417 161.854674 71.072717 9.897281 8.532139 24.401917 20.733097 31.99552 26.790916 7.849568 5.972497 22.354204 18.173456 31.995521 26.705594 9.897281 8.788103 19.453277 15.9551 21.756954 15.9551 5.289926 0 16.637671-9.044067 57.847901-47.353371 19.538598-18.258777 35.493698-34.725805 35.493698-36.688197 0-1.962392-12.798208-13.822065-28.156059-26.193666a774.120956 774.120956 0 0 1-33.19002-27.558808c-5.54589-6.057819-57.591937-46.07355-84.297531-65.10022-23.889989-17.064278-55.800188-33.019377-90.696636-45.220335-14.248672-5.119283-26.44963-10.409209-27.04688-12.371602-1.450464-3.583498 16.893635-53.49651 25.596416-68.939682 18.002813-32.763413 40.954266-60.578186 74.144287-90.440671 30.203771-26.961559 79.348891-52.899261 118.59673-62.284614 6.399104-1.365142 20.050526-4.948641 30.545057-7.42296 13.907386-3.583498 29.862486-4.948641 61.004792-4.948641 36.346911 0 46.244192 1.109178 72.693823 7.422961 57.847901 14.333993 96.754454 32.848735 136.258257 65.356183 25.340452 20.989062 51.448797 50.168976 68.086468 76.874571 7.508282 12.200959 14.7606 22.610168 15.9551 23.463382 1.194499 0.59725 10.494531-0.853214 20.90374-2.986249 10.494531-2.218356 39.247839-5.033962 63.991041-5.801854 50.595583-2.218356 52.046047-2.815606 41.295552-22.09824a175.420774 175.420774 0 0 1-9.385353-21.245025 106.481093 106.481093 0 0 0-10.153245-20.647776 116.293052 116.293052 0 0 1-8.105532-13.736744c-6.399104-12.798208-32.848735-46.329514-57.591937-73.376394-29.862486-32.507449-83.358996-70.560788-127.555475-90.9526l-32.848735-15.443171c-5.289926-2.559642-14.504636-5.54589-52.899261-16.808314-48.633191-14.589957-124.398584-19.282634-185.147412-11.603708z m495.887909 479.932809c53.411189 12.968851 83.103032 29.5212 114.501303 64.247005 32.507449 35.579019 44.793729 67.57454 46.244192 119.705908 1.109178 32.251485 0.511928 37.200125-6.399104 57.591937-9.897281 28.923951-19.538598 47.097406-34.299198 64.247006-28.156058 32.763413-69.195646 58.103865-107.846235 66.636004-9.641317 1.962392-36.688197 5.033962-59.895614 6.399104-53.752475 3.327534-490.342019 3.583498-492.389732 0.255964-0.853214-1.365142 29.862486-31.398271 68.598396-66.721325 38.650589-35.579019 78.751641-72.52318 89.246172-82.420461 31.398271-29.179915 151.701428-138.391292 168.851027-152.98125 8.702782-7.678925 17.149599-15.443171 18.344099-17.064277 3.754141-5.54589 43.513908-32.848735 60.748828-41.380874 8.361496-4.436712 25.255131-10.750495 37.200126-14.333993 11.944994-3.327534 23.207418-6.655068 24.743202-7.166997 8.361496-2.730284 56.653402-0.853214 72.352538 2.986249z" fill="#50595b" p-id="8460"/></svg>