<?xml version="1.0" encoding="UTF-8" standalone="no"?>
<!DOCTYPE svg PUBLIC "-//W3C//DTD SVG 1.1//EN" "http://www.w3.org/Graphics/SVG/1.1/DTD/svg11.dtd">
<svg t="1542627266783" class="icon" style="" viewBox="0 0 1024 1024" version="1.1" xmlns="http://www.w3.org/2000/svg" p-id="12127" xmlns:xlink="http://www.w3.org/1999/xlink" width="200" height="200"><defs><style type="text/css"/></defs><path d="M123.4 338.8l203 556C184.4 826 86.6 680.4 86.6 512c0-61.8 13.2-120.2 36.8-173.2z m675.8 151.8c0-52.6-18.8-89-35-117.4-21.6-35-41.8-64.8-41.8-99.8 0-39.2 29.6-75.6 71.4-75.6 1.8 0 3.6 0.2 5.6 0.4-75.8-69.4-176.6-111.8-287.4-111.8-148.6 0-279.4 76.2-355.6 191.8 10 0.4 19.4 0.6 27.4 0.6 44.4 0 113.4-5.4 113.4-5.4 23-1.4 25.6 32.4 2.8 35 0 0-23 2.6-48.6 4l155 460.8L499.6 494l-66.2-181.6c-23-1.4-44.6-4-44.6-4-23-1.4-20.2-36.4 2.6-35 0 0 70.2 5.4 112 5.4 44.4 0 113.4-5.4 113.4-5.4 23-1.4 25.6 32.4 2.8 35 0 0-23 2.6-48.6 4l153.8 457.4 42.4-141.8c18-58.8 32-101 32-137.4z m-279.8 58.6l-127.6 371c38.2 11.2 78.4 17.4 120.2 17.4 49.6 0 97-8.6 141.2-24.2-1.2-1.8-2.2-3.8-3-5.8l-130.8-358.4z m366-241.4c1.8 13.6 2.8 28 2.8 43.8 0 43.2-8 91.6-32.4 152.4l-130 375.8C852.4 806 937.4 669 937.4 512c0-74-18.8-143.6-52-204.2zM1008 512c0 273.6-222.6 496-496 496C238.4 1008 16 785.4 16 512 16 238.4 238.4 16 512 16c273.4 0 496 222.4 496 496z m-22.8 0c0-261-212.4-473.2-473.2-473.2C251 38.8 38.8 251 38.8 512S251.2 985.2 512 985.2c261 0 473.2-212.2 473.2-473.2z" p-id="12128" fill="#50595b"/></svg>